<?xml version="1.0" standalone="no"?>
<!DOCTYPE svg PUBLIC "-//W3C//DTD SVG 20010904//EN"
 "http://www.w3.org/TR/2001/REC-SVG-20010904/DTD/svg10.dtd">
<svg version="1.0" xmlns="http://www.w3.org/2000/svg"
 width="1161.000000pt" height="1161.000000pt" viewBox="0 0 1161.000000 1161.000000"
 preserveAspectRatio="xMidYMid meet">
<metadata>
Created by potrace 1.14, written by Peter Selinger 2001-2017
</metadata>
<g transform="translate(0.000000,1161.000000) scale(0.100000,-0.100000)"
fill="#000000" stroke="none">
<path d="M0 5810 l0 -5370 2760 0 2760 0 0 5370 0 5370 -2760 0 -2760 0 0
-5370z m4278 -847 l-3 -308 -29 -3 c-42 -5 -94 7 -93 21 0 6 -1 121 -1 255
l-2 242 -45 0 -45 0 0 50 0 50 110 0 110 0 -2 -307z m684 278 c-9 -16 -21 -27
-26 -24 -5 3 -6 1 -2 -5 9 -14 -48 -115 -59 -104 -4 4 -5 1 -1 -6 4 -7 3 -19
-3 -26 -9 -11 3 -14 63 -18 126 -8 180 -67 180 -193 0 -139 -84 -219 -226
-214 -152 5 -240 101 -225 248 7 61 76 208 96 203 7 -1 10 2 6 8 -3 6 13 44
36 85 l43 75 68 0 67 0 -17 -29z m-422 -126 l44 -45 -47 -48 c-26 -26 -47 -52
-47 -57 0 -5 21 -30 46 -56 l47 -47 -46 -49 -46 -48 -51 50 -51 50 46 43 c25
24 45 49 45 55 0 6 -21 32 -46 58 l-46 47 48 46 c27 25 51 46 54 46 3 0 26
-20 50 -45z"/>
<path d="M4852 4964 c-41 -17 -62 -51 -62 -99 0 -48 18 -78 59 -95 46 -19 96
-5 126 34 34 45 33 87 -5 130 -34 38 -74 49 -118 30z"/>
<path d="M5790 5810 l0 -5370 2910 0 2910 0 0 5370 0 5370 -2910 0 -2910 0 0
-5370z"/>
</g>
</svg>
